<svg width="242.6mm" height="109.25mm" viewBox="0 0 242.6 109.25" xmlns="http://www.w3.org/2000/svg"><g id="svgGroup" stroke-linecap="round" fill-rule="evenodd" font-size="9pt" stroke="#000" stroke-width="0.25mm" fill="none" style="stroke:#000;stroke-width:0.25mm;fill:none"><path d="M 133.8375 109.249844 A 0.5 0.5 0 0 0 133.85 109.25 L 136.23125 109.25 L 139.73125 109.25 L 143.375 109.25 L 145.73125 109.25 L 146.85 109.25 L 149.23125 109.25 L 149.288 109.25 L 151.66925 109.25 L 155.28125 109.25 L 155.288 109.25 L 156.375 109.25 L 157.66925 109.25 L 162.425 109.25 L 164.80625 109.25 L 165.925 109.25 L 167.1875 109.25 L 168.28125 109.25 L 171.925 109.25 L 175.425 109.25 L 177.80625 109.25 L 177.83125 109.25 L 180.1875 109.25 L 183.83125 109.25 A 0.5 0.5 0 0 0 183.84375 109.249844 A 0.5 0.5 0 0 0 183.85625 109.25 L 186.2375 109.25 L 196.85625 109.25 L 199.2375 109.25 A 0.5 0.5 0 0 0 199.7375 108.75 L 199.7375 95.75 A 0.5 0.5 0 0 0 199.2375 95.25 L 196.85625 95.25 L 186.2375 95.25 L 184.33125 95.25 L 184.33125 94.75 A 0.5 0.5 0 0 0 183.83125 94.25 L 177.83125 94.25 A 0.5 0.5 0 0 0 177.33125 94.75 L 177.33125 95.25 L 175.425 95.25 L 172.425 95.25 L 172.425 94.75 A 0.5 0.5 0 0 0 171.925 94.25 L 165.925 94.25 A 0.5 0.5 0 0 0 165.425 94.75 L 165.425 95.25 L 164.80625 95.25 L 162.425 95.25 L 158.16925 95.25 L 158.16925 94.75 A 0.5 0.5 0 0 0 157.66925 94.25 L 155.288 94.25 L 151.66925 94.25 L 149.288 94.25 A 0.5 0.5 0 0 0 148.788 94.75 L 148.788 95.25 L 146.85 95.25 L 146.23125 95.25 L 146.23125 94.75 A 0.5 0.5 0 0 0 145.73125 94.25 L 139.73125 94.25 A 0.5 0.5 0 0 0 139.23125 94.75 L 139.23125 95.25 L 136.23125 95.25 L 134.325 95.25 L 134.325 94.75 A 0.5 0.5 0 0 0 133.825 94.25 L 133.79325 94.25 L 131.412 94.25 L 127.825 94.25 L 127.79325 94.25 L 125.412 94.25 A 0.5 0.5 0 0 0 124.912 94.75 L 124.912 108.75 A 0.5 0.5 0 0 0 125.412 109.25 L 127.79325 109.25 L 127.825 109.25 L 131.412 109.25 L 133.79325 109.25 L 133.825 109.25 A 0.5 0.5 0 0 0 133.8375 109.249844 Z M 58.74375 109.25 A 0.5 0.5 0 0 0 58.75625 109.249844 A 0.5 0.5 0 0 0 58.76875 109.25 L 62.4125 109.25 L 64.76875 109.25 L 64.79375 109.25 L 67.175 109.25 L 70.675 109.25 L 74.31875 109.25 L 75.4125 109.25 L 76.675 109.25 L 77.79375 109.25 L 80.175 109.25 L 84.93075 109.25 L 86.225 109.25 L 87.312 109.25 L 87.31875 109.25 L 90.93075 109.25 L 93.312 109.25 L 93.36875 109.25 L 95.75 109.25 L 96.86875 109.25 L 99.225 109.25 L 102.86875 109.25 L 106.36875 109.25 L 108.75 109.25 A 0.5 0.5 0 0 0 108.7625 109.249844 A 0.5 0.5 0 0 0 108.775 109.25 L 108.80675 109.25 L 111.188 109.25 L 114.775 109.25 L 114.80675 109.25 L 117.188 109.25 A 0.5 0.5 0 0 0 117.688 108.75 L 117.688 94.75 A 0.5 0.5 0 0 0 117.188 94.25 L 114.80675 94.25 L 114.775 94.25 L 111.188 94.25 L 108.80675 94.25 L 108.775 94.25 A 0.5 0.5 0 0 0 108.275 94.75 L 108.275 95.25 L 106.36875 95.25 L 103.36875 95.25 L 103.36875 94.75 A 0.5 0.5 0 0 0 102.86875 94.25 L 96.86875 94.25 A 0.5 0.5 0 0 0 96.36875 94.75 L 96.36875 95.25 L 95.75 95.25 L 93.812 95.25 L 93.812 94.75 A 0.5 0.5 0 0 0 93.312 94.25 L 90.93075 94.25 L 87.312 94.25 L 84.93075 94.25 A 0.5 0.5 0 0 0 84.43075 94.75 L 84.43075 95.25 L 80.175 95.25 L 77.79375 95.25 L 77.175 95.25 L 77.175 94.75 A 0.5 0.5 0 0 0 76.675 94.25 L 70.675 94.25 A 0.5 0.5 0 0 0 70.175 94.75 L 70.175 95.25 L 67.175 95.25 L 65.26875 95.25 L 65.26875 94.75 A 0.5 0.5 0 0 0 64.76875 94.25 L 58.76875 94.25 A 0.5 0.5 0 0 0 58.26875 94.75 L 58.26875 95.25 L 56.3625 95.25 L 45.74375 95.25 L 43.3625 95.25 A 0.5 0.5 0 0 0 42.8625 95.75 L 42.8625 108.75 A 0.5 0.5 0 0 0 43.3625 109.25 L 45.74375 109.25 L 56.3625 109.25 L 58.74375 109.25 Z M 19.05 13.5 A 0.5 0.5 0 0 0 19.55 14 L 32.55 14 A 0.5 0.5 0 0 0 33.05 13.5 L 33.05 0.5 A 0.5 0.5 0 0 0 32.55 0 L 19.55 0 A 0.5 0.5 0 0 0 19.05 0.5 L 19.05 13.5 Z M 38.1 13.5 A 0.5 0.5 0 0 0 38.6 14 L 51.6 14 A 0.5 0.5 0 0 0 52.1 13.5 L 52.1 0.5 A 0.5 0.5 0 0 0 51.6 0 L 38.6 0 A 0.5 0.5 0 0 0 38.1 0.5 L 38.1 13.5 Z M 57.15 13.5 A 0.5 0.5 0 0 0 57.65 14 L 70.65 14 A 0.5 0.5 0 0 0 71.15 13.5 L 71.15 0.5 A 0.5 0.5 0 0 0 70.65 0 L 57.65 0 A 0.5 0.5 0 0 0 57.15 0.5 L 57.15 13.5 Z M 76.2 13.5 A 0.5 0.5 0 0 0 76.7 14 L 89.7 14 A 0.5 0.5 0 0 0 90.2 13.5 L 90.2 0.5 A 0.5 0.5 0 0 0 89.7 0 L 76.7 0 A 0.5 0.5 0 0 0 76.2 0.5 L 76.2 13.5 Z M 95.25 13.5 A 0.5 0.5 0 0 0 95.75 14 L 108.75 14 A 0.5 0.5 0 0 0 109.25 13.5 L 109.25 0.5 A 0.5 0.5 0 0 0 108.75 0 L 95.75 0 A 0.5 0.5 0 0 0 95.25 0.5 L 95.25 13.5 Z M 133.35 13.5 A 0.5 0.5 0 0 0 133.85 14 L 146.85 14 A 0.5 0.5 0 0 0 147.35 13.5 L 147.35 0.5 A 0.5 0.5 0 0 0 146.85 0 L 133.85 0 A 0.5 0.5 0 0 0 133.35 0.5 L 133.35 13.5 Z M 152.4 13.5 A 0.5 0.5 0 0 0 152.9 14 L 165.9 14 A 0.5 0.5 0 0 0 166.4 13.5 L 166.4 0.5 A 0.5 0.5 0 0 0 165.9 0 L 152.9 0 A 0.5 0.5 0 0 0 152.4 0.5 L 152.4 13.5 Z M 171.45 13.5 A 0.5 0.5 0 0 0 171.95 14 L 184.95 14 A 0.5 0.5 0 0 0 185.45 13.5 L 185.45 0.5 A 0.5 0.5 0 0 0 184.95 0 L 171.95 0 A 0.5 0.5 0 0 0 171.45 0.5 L 171.45 13.5 Z M 190.5 13.5 A 0.5 0.5 0 0 0 191 14 L 204 14 A 0.5 0.5 0 0 0 204.5 13.5 L 204.5 0.5 A 0.5 0.5 0 0 0 204 0 L 191 0 A 0.5 0.5 0 0 0 190.5 0.5 L 190.5 13.5 Z M 209.55 13.5 A 0.5 0.5 0 0 0 210.05 14 L 223.05 14 A 0.5 0.5 0 0 0 223.55 13.5 L 223.55 0.5 A 0.5 0.5 0 0 0 223.05 0 L 210.05 0 A 0.5 0.5 0 0 0 209.55 0.5 L 209.55 13.5 Z M 228.6 13.5 A 0.5 0.5 0 0 0 229.1 14 L 242.1 14 A 0.5 0.5 0 0 0 242.6 13.5 L 242.6 0.5 A 0.5 0.5 0 0 0 242.1 0 L 229.1 0 A 0.5 0.5 0 0 0 228.6 0.5 L 228.6 13.5 Z M 19.05 32.55 A 0.5 0.5 0 0 0 19.55 33.05 L 32.55 33.05 A 0.5 0.5 0 0 0 33.05 32.55 L 33.05 19.55 A 0.5 0.5 0 0 0 32.55 19.05 L 19.55 19.05 A 0.5 0.5 0 0 0 19.05 19.55 L 19.05 32.55 Z M 38.1 32.55 A 0.5 0.5 0 0 0 38.6 33.05 L 51.6 33.05 A 0.5 0.5 0 0 0 52.1 32.55 L 52.1 19.55 A 0.5 0.5 0 0 0 51.6 19.05 L 38.6 19.05 A 0.5 0.5 0 0 0 38.1 19.55 L 38.1 32.55 Z M 57.15 32.55 A 0.5 0.5 0 0 0 57.65 33.05 L 70.65 33.05 A 0.5 0.5 0 0 0 71.15 32.55 L 71.15 19.55 A 0.5 0.5 0 0 0 70.65 19.05 L 57.65 19.05 A 0.5 0.5 0 0 0 57.15 19.55 L 57.15 32.55 Z M 76.2 32.55 A 0.5 0.5 0 0 0 76.7 33.05 L 89.7 33.05 A 0.5 0.5 0 0 0 90.2 32.55 L 90.2 19.55 A 0.5 0.5 0 0 0 89.7 19.05 L 76.7 19.05 A 0.5 0.5 0 0 0 76.2 19.55 L 76.2 32.55 Z M 95.25 32.55 A 0.5 0.5 0 0 0 95.75 33.05 L 108.75 33.05 A 0.5 0.5 0 0 0 109.25 32.55 L 109.25 19.55 A 0.5 0.5 0 0 0 108.75 19.05 L 95.75 19.05 A 0.5 0.5 0 0 0 95.25 19.55 L 95.25 32.55 Z M 133.35 32.55 A 0.5 0.5 0 0 0 133.85 33.05 L 146.85 33.05 A 0.5 0.5 0 0 0 147.35 32.55 L 147.35 19.55 A 0.5 0.5 0 0 0 146.85 19.05 L 133.85 19.05 A 0.5 0.5 0 0 0 133.35 19.55 L 133.35 32.55 Z M 152.4 32.55 A 0.5 0.5 0 0 0 152.9 33.05 L 165.9 33.05 A 0.5 0.5 0 0 0 166.4 32.55 L 166.4 19.55 A 0.5 0.5 0 0 0 165.9 19.05 L 152.9 19.05 A 0.5 0.5 0 0 0 152.4 19.55 L 152.4 32.55 Z M 171.45 32.55 A 0.5 0.5 0 0 0 171.95 33.05 L 184.95 33.05 A 0.5 0.5 0 0 0 185.45 32.55 L 185.45 19.55 A 0.5 0.5 0 0 0 184.95 19.05 L 171.95 19.05 A 0.5 0.5 0 0 0 171.45 19.55 L 171.45 32.55 Z M 190.5 32.55 A 0.5 0.5 0 0 0 191 33.05 L 204 33.05 A 0.5 0.5 0 0 0 204.5 32.55 L 204.5 19.55 A 0.5 0.5 0 0 0 204 19.05 L 191 19.05 A 0.5 0.5 0 0 0 190.5 19.55 L 190.5 32.55 Z M 219.075 32.55 A 0.5 0.5 0 0 0 219.575 33.05 L 232.575 33.05 A 0.5 0.5 0 0 0 233.075 32.55 L 233.075 19.55 A 0.5 0.5 0 0 0 232.575 19.05 L 219.575 19.05 A 0.5 0.5 0 0 0 219.075 19.55 L 219.075 32.55 Z M 4.7625 51.6 A 0.5 0.5 0 0 0 5.2625 52.1 L 18.2625 52.1 A 0.5 0.5 0 0 0 18.7625 51.6 L 18.7625 38.6 A 0.5 0.5 0 0 0 18.2625 38.1 L 5.2625 38.1 A 0.5 0.5 0 0 0 4.7625 38.6 L 4.7625 51.6 Z M 28.575 51.6 A 0.5 0.5 0 0 0 29.075 52.1 L 42.075 52.1 A 0.5 0.5 0 0 0 42.575 51.6 L 42.575 38.6 A 0.5 0.5 0 0 0 42.075 38.1 L 29.075 38.1 A 0.5 0.5 0 0 0 28.575 38.6 L 28.575 51.6 Z M 47.625 51.6 A 0.5 0.5 0 0 0 48.125 52.1 L 61.125 52.1 A 0.5 0.5 0 0 0 61.625 51.6 L 61.625 38.6 A 0.5 0.5 0 0 0 61.125 38.1 L 48.125 38.1 A 0.5 0.5 0 0 0 47.625 38.6 L 47.625 51.6 Z M 66.675 51.6 A 0.5 0.5 0 0 0 67.175 52.1 L 80.175 52.1 A 0.5 0.5 0 0 0 80.675 51.6 L 80.675 38.6 A 0.5 0.5 0 0 0 80.175 38.1 L 67.175 38.1 A 0.5 0.5 0 0 0 66.675 38.6 L 66.675 51.6 Z M 85.725 51.6 A 0.5 0.5 0 0 0 86.225 52.1 L 99.225 52.1 A 0.5 0.5 0 0 0 99.725 51.6 L 99.725 38.6 A 0.5 0.5 0 0 0 99.225 38.1 L 86.225 38.1 A 0.5 0.5 0 0 0 85.725 38.6 L 85.725 51.6 Z M 104.775 51.6 A 0.5 0.5 0 0 0 105.275 52.1 L 118.275 52.1 A 0.5 0.5 0 0 0 118.775 51.6 L 118.775 38.6 A 0.5 0.5 0 0 0 118.275 38.1 L 105.275 38.1 A 0.5 0.5 0 0 0 104.775 38.6 L 104.775 51.6 Z M 123.825 51.6 A 0.5 0.5 0 0 0 124.325 52.1 L 137.325 52.1 A 0.5 0.5 0 0 0 137.825 51.6 L 137.825 38.6 A 0.5 0.5 0 0 0 137.325 38.1 L 124.325 38.1 A 0.5 0.5 0 0 0 123.825 38.6 L 123.825 51.6 Z M 142.875 51.6 A 0.5 0.5 0 0 0 143.375 52.1 L 156.375 52.1 A 0.5 0.5 0 0 0 156.875 51.6 L 156.875 38.6 A 0.5 0.5 0 0 0 156.375 38.1 L 143.375 38.1 A 0.5 0.5 0 0 0 142.875 38.6 L 142.875 51.6 Z M 161.925 51.6 A 0.5 0.5 0 0 0 162.425 52.1 L 175.425 52.1 A 0.5 0.5 0 0 0 175.925 51.6 L 175.925 38.6 A 0.5 0.5 0 0 0 175.425 38.1 L 162.425 38.1 A 0.5 0.5 0 0 0 161.925 38.6 L 161.925 51.6 Z M 180.975 51.6 A 0.5 0.5 0 0 0 181.475 52.1 L 194.475 52.1 A 0.5 0.5 0 0 0 194.975 51.6 L 194.975 38.6 A 0.5 0.5 0 0 0 194.475 38.1 L 181.475 38.1 A 0.5 0.5 0 0 0 180.975 38.6 L 180.975 51.6 Z M 200.025 51.6 A 0.5 0.5 0 0 0 200.525 52.1 L 213.525 52.1 A 0.5 0.5 0 0 0 214.025 51.6 L 214.025 38.6 A 0.5 0.5 0 0 0 213.525 38.1 L 200.525 38.1 A 0.5 0.5 0 0 0 200.025 38.6 L 200.025 51.6 Z M 226.21875 61.125 A 0.5 0.5 0 0 0 226.71875 61.625 L 239.71875 61.625 A 0.5 0.5 0 0 0 240.21875 61.125 L 240.21875 48.125 A 0.5 0.5 0 0 0 239.71875 47.625 L 226.71875 47.625 A 0.5 0.5 0 0 0 226.21875 48.125 L 226.21875 61.125 Z M 7.14375 70.65 A 0.5 0.5 0 0 0 7.64375 71.15 L 20.64375 71.15 A 0.5 0.5 0 0 0 21.14375 70.65 L 21.14375 57.65 A 0.5 0.5 0 0 0 20.64375 57.15 L 7.64375 57.15 A 0.5 0.5 0 0 0 7.14375 57.65 L 7.14375 70.65 Z M 33.3375 70.65 A 0.5 0.5 0 0 0 33.8375 71.15 L 46.8375 71.15 A 0.5 0.5 0 0 0 47.3375 70.65 L 47.3375 57.65 A 0.5 0.5 0 0 0 46.8375 57.15 L 33.8375 57.15 A 0.5 0.5 0 0 0 33.3375 57.65 L 33.3375 70.65 Z M 71.4375 70.65 A 0.5 0.5 0 0 0 71.9375 71.15 L 84.9375 71.15 A 0.5 0.5 0 0 0 85.4375 70.65 L 85.4375 57.65 A 0.5 0.5 0 0 0 84.9375 57.15 L 71.9375 57.15 A 0.5 0.5 0 0 0 71.4375 57.65 L 71.4375 70.65 Z M 90.4875 70.65 A 0.5 0.5 0 0 0 90.9875 71.15 L 103.9875 71.15 A 0.5 0.5 0 0 0 104.4875 70.65 L 104.4875 57.65 A 0.5 0.5 0 0 0 103.9875 57.15 L 90.9875 57.15 A 0.5 0.5 0 0 0 90.4875 57.65 L 90.4875 70.65 Z M 109.5375 70.65 A 0.5 0.5 0 0 0 110.0375 71.15 L 123.0375 71.15 A 0.5 0.5 0 0 0 123.5375 70.65 L 123.5375 57.65 A 0.5 0.5 0 0 0 123.0375 57.15 L 110.0375 57.15 A 0.5 0.5 0 0 0 109.5375 57.65 L 109.5375 70.65 Z M 128.5875 70.65 A 0.5 0.5 0 0 0 129.0875 71.15 L 142.0875 71.15 A 0.5 0.5 0 0 0 142.5875 70.65 L 142.5875 57.65 A 0.5 0.5 0 0 0 142.0875 57.15 L 129.0875 57.15 A 0.5 0.5 0 0 0 128.5875 57.65 L 128.5875 70.65 Z M 147.6375 70.65 A 0.5 0.5 0 0 0 148.1375 71.15 L 161.1375 71.15 A 0.5 0.5 0 0 0 161.6375 70.65 L 161.6375 57.65 A 0.5 0.5 0 0 0 161.1375 57.15 L 148.1375 57.15 A 0.5 0.5 0 0 0 147.6375 57.65 L 147.6375 70.65 Z M 166.6875 70.65 A 0.5 0.5 0 0 0 167.1875 71.15 L 180.1875 71.15 A 0.5 0.5 0 0 0 180.6875 70.65 L 180.6875 57.65 A 0.5 0.5 0 0 0 180.1875 57.15 L 167.1875 57.15 A 0.5 0.5 0 0 0 166.6875 57.65 L 166.6875 70.65 Z M 185.7375 70.65 A 0.5 0.5 0 0 0 186.2375 71.15 L 199.2375 71.15 A 0.5 0.5 0 0 0 199.7375 70.65 L 199.7375 57.65 A 0.5 0.5 0 0 0 199.2375 57.15 L 186.2375 57.15 A 0.5 0.5 0 0 0 185.7375 57.65 L 185.7375 70.65 Z M 204.7875 70.65 A 0.5 0.5 0 0 0 205.2875 71.15 L 218.2875 71.15 A 0.5 0.5 0 0 0 218.7875 70.65 L 218.7875 57.65 A 0.5 0.5 0 0 0 218.2875 57.15 L 205.2875 57.15 A 0.5 0.5 0 0 0 204.7875 57.65 L 204.7875 70.65 Z M 9.525 89.7 A 0.5 0.5 0 0 0 10.025 90.2 L 23.025 90.2 A 0.5 0.5 0 0 0 23.525 89.7 L 23.525 76.7 A 0.5 0.5 0 0 0 23.025 76.2 L 10.025 76.2 A 0.5 0.5 0 0 0 9.525 76.7 L 9.525 89.7 Z M 38.1 89.7 A 0.5 0.5 0 0 0 38.6 90.2 L 51.6 90.2 A 0.5 0.5 0 0 0 52.1 89.7 L 52.1 76.7 A 0.5 0.5 0 0 0 51.6 76.2 L 38.6 76.2 A 0.5 0.5 0 0 0 38.1 76.7 L 38.1 89.7 Z M 57.15 89.7 A 0.5 0.5 0 0 0 57.65 90.2 L 70.65 90.2 A 0.5 0.5 0 0 0 71.15 89.7 L 71.15 76.7 A 0.5 0.5 0 0 0 70.65 76.2 L 57.65 76.2 A 0.5 0.5 0 0 0 57.15 76.7 L 57.15 89.7 Z M 76.2 89.7 A 0.5 0.5 0 0 0 76.7 90.2 L 89.7 90.2 A 0.5 0.5 0 0 0 90.2 89.7 L 90.2 76.7 A 0.5 0.5 0 0 0 89.7 76.2 L 76.7 76.2 A 0.5 0.5 0 0 0 76.2 76.7 L 76.2 89.7 Z M 95.25 89.7 A 0.5 0.5 0 0 0 95.75 90.2 L 108.75 90.2 A 0.5 0.5 0 0 0 109.25 89.7 L 109.25 76.7 A 0.5 0.5 0 0 0 108.75 76.2 L 95.75 76.2 A 0.5 0.5 0 0 0 95.25 76.7 L 95.25 89.7 Z M 133.35 89.7 A 0.5 0.5 0 0 0 133.85 90.2 L 146.85 90.2 A 0.5 0.5 0 0 0 147.35 89.7 L 147.35 76.7 A 0.5 0.5 0 0 0 146.85 76.2 L 133.85 76.2 A 0.5 0.5 0 0 0 133.35 76.7 L 133.35 89.7 Z M 152.4 89.7 A 0.5 0.5 0 0 0 152.9 90.2 L 165.9 90.2 A 0.5 0.5 0 0 0 166.4 89.7 L 166.4 76.7 A 0.5 0.5 0 0 0 165.9 76.2 L 152.9 76.2 A 0.5 0.5 0 0 0 152.4 76.7 L 152.4 89.7 Z M 171.45 89.7 A 0.5 0.5 0 0 0 171.95 90.2 L 184.95 90.2 A 0.5 0.5 0 0 0 185.45 89.7 L 185.45 76.7 A 0.5 0.5 0 0 0 184.95 76.2 L 171.95 76.2 A 0.5 0.5 0 0 0 171.45 76.7 L 171.45 89.7 Z M 190.5 89.7 A 0.5 0.5 0 0 0 191 90.2 L 204 90.2 A 0.5 0.5 0 0 0 204.5 89.7 L 204.5 76.7 A 0.5 0.5 0 0 0 204 76.2 L 191 76.2 A 0.5 0.5 0 0 0 190.5 76.7 L 190.5 89.7 Z M 219.075 89.7 A 0.5 0.5 0 0 0 219.575 90.2 L 232.575 90.2 A 0.5 0.5 0 0 0 233.075 89.7 L 233.075 76.7 A 0.5 0.5 0 0 0 232.575 76.2 L 219.575 76.2 A 0.5 0.5 0 0 0 219.075 76.7 L 219.075 89.7 Z M 0 13.5 A 0.5 0.5 0 0 0 0.5 14 L 13.5 14 A 0.5 0.5 0 0 0 14 13.5 L 14 0.5 A 0.5 0.5 0 0 0 13.5 0 L 0.5 0 A 0.5 0.5 0 0 0 0 0.5 L 0 13.5 Z M 0 32.55 A 0.5 0.5 0 0 0 0.5 33.05 L 13.5 33.05 A 0.5 0.5 0 0 0 14 32.55 L 14 19.55 A 0.5 0.5 0 0 0 13.5 19.05 L 0.5 19.05 A 0.5 0.5 0 0 0 0 19.55 L 0 32.55 Z M 52.3875 70.65 A 0.5 0.5 0 0 0 52.8875 71.15 L 65.8875 71.15 A 0.5 0.5 0 0 0 66.3875 70.65 L 66.3875 57.65 A 0.5 0.5 0 0 0 65.8875 57.15 L 52.8875 57.15 A 0.5 0.5 0 0 0 52.3875 57.65 L 52.3875 70.65 Z M 114.3 13.5 A 0.5 0.5 0 0 0 114.8 14 L 127.8 14 A 0.5 0.5 0 0 0 128.3 13.5 L 128.3 0.5 A 0.5 0.5 0 0 0 127.8 0 L 114.8 0 A 0.5 0.5 0 0 0 114.3 0.5 L 114.3 13.5 Z M 114.3 32.55 A 0.5 0.5 0 0 0 114.8 33.05 L 127.8 33.05 A 0.5 0.5 0 0 0 128.3 32.55 L 128.3 19.55 A 0.5 0.5 0 0 0 127.8 19.05 L 114.8 19.05 A 0.5 0.5 0 0 0 114.3 19.55 L 114.3 32.55 Z M 114.3 89.7 A 0.5 0.5 0 0 0 114.8 90.2 L 127.8 90.2 A 0.5 0.5 0 0 0 128.3 89.7 L 128.3 76.7 A 0.5 0.5 0 0 0 127.8 76.2 L 114.8 76.2 A 0.5 0.5 0 0 0 114.3 76.7 L 114.3 89.7 Z M 225.71875 39.187 A 0.5 0.5 0 0 0 225.21875 39.687 L 225.21875 45.687 A 0.5 0.5 0 0 0 225.71875 46.187 L 239.71875 46.187 A 0.5 0.5 0 0 0 240.21875 45.687 L 240.21875 39.687 A 0.5 0.5 0 0 0 239.71875 39.187 L 225.71875 39.187 Z M 210.637 33.55 A 0.5 0.5 0 0 0 211.137 34.05 L 217.137 34.05 A 0.5 0.5 0 0 0 217.637 33.55 L 217.637 19.55 A 0.5 0.5 0 0 0 217.137 19.05 L 211.137 19.05 A 0.5 0.5 0 0 0 210.637 19.55 L 210.637 33.55 Z M 234.513 33.55 A 0.5 0.5 0 0 0 235.013 34.05 L 241.013 34.05 A 0.5 0.5 0 0 0 241.513 33.55 L 241.513 19.55 A 0.5 0.5 0 0 0 241.013 19.05 L 235.013 19.05 A 0.5 0.5 0 0 0 234.513 19.55 L 234.513 33.55 Z M 225.71875 63.063 A 0.5 0.5 0 0 0 225.21875 63.563 L 225.21875 69.563 A 0.5 0.5 0 0 0 225.71875 70.063 L 239.71875 70.063 A 0.5 0.5 0 0 0 240.21875 69.563 L 240.21875 63.563 A 0.5 0.5 0 0 0 239.71875 63.063 L 225.71875 63.063 Z M 1.087 90.7 A 0.5 0.5 0 0 0 1.587 91.2 L 7.587 91.2 A 0.5 0.5 0 0 0 8.087 90.7 L 8.087 76.7 A 0.5 0.5 0 0 0 7.587 76.2 L 1.587 76.2 A 0.5 0.5 0 0 0 1.087 76.7 L 1.087 90.7 Z M 24.963 90.7 A 0.5 0.5 0 0 0 25.463 91.2 L 31.463 91.2 A 0.5 0.5 0 0 0 31.963 90.7 L 31.963 76.7 A 0.5 0.5 0 0 0 31.463 76.2 L 25.463 76.2 A 0.5 0.5 0 0 0 24.963 76.7 L 24.963 90.7 Z M 210.637 90.7 A 0.5 0.5 0 0 0 211.137 91.2 L 217.137 91.2 A 0.5 0.5 0 0 0 217.637 90.7 L 217.637 76.7 A 0.5 0.5 0 0 0 217.137 76.2 L 211.137 76.2 A 0.5 0.5 0 0 0 210.637 76.7 L 210.637 90.7 Z M 234.513 90.7 A 0.5 0.5 0 0 0 235.013 91.2 L 241.013 91.2 A 0.5 0.5 0 0 0 241.513 90.7 L 241.513 76.7 A 0.5 0.5 0 0 0 241.013 76.2 L 235.013 76.2 A 0.5 0.5 0 0 0 234.513 76.7 L 234.513 90.7 Z" vector-effect="non-scaling-stroke"/></g></svg>