0
SECTION
2
HEADER
9
$INSUNITS
70
4
0
ENDSEC
0
SECTION
2
TABLES
0
TABLE
2
LTYPE
0
LTYPE
72
65
70
64
2
CONTINUOUS
3
______
73
0
40
0
0
ENDTAB
0
TABLE
2
LAYER
0
ENDTAB
0
ENDSEC
0
SECTION
2
ENTITIES
0
ARC
8
0
10
3.025
20
-16.025
40
0.5
50
180
51
270
0
ARC
8
0
10
16.025
20
-16.025
40
0.5
50
270
51
0
0
ARC
8
0
10
16.025
20
-3.025
40
0.5
50
0
51
90
0
ARC
8
0
10
3.025
20
-3.025
40
0.5
50
90
51
180
0
LINE
8
0
10
3.025
20
-16.525
11
16.025
21
-16.525
0
LINE
8
0
10
16.025
20
-2.525
11
3.025
21
-2.525
0
LINE
8
0
10
16.525
20
-16.025
11
16.525
21
-3.025
0
LINE
8
0
10
2.525
20
-3.025
11
2.525
21
-16.025
0
ARC
8
0
10
22.075
20
-16.025
40
0.5
50
180
51
270
0
ARC
8
0
10
35.075
20
-16.025
40
0.5
50
270
51
0
0
ARC
8
0
10
35.075
20
-3.025
40
0.5
50
0
51
90
0
ARC
8
0
10
22.075
20
-3.025
40
0.5
50
90
51
180
0
LINE
8
0
10
22.075
20
-16.525
11
35.075
21
-16.525
0
LINE
8
0
10
35.075
20
-2.525
11
22.075
21
-2.525
0
LINE
8
0
10
35.575
20
-16.025
11
35.575
21
-3.025
0
LINE
8
0
10
21.575
20
-3.025
11
21.575
21
-16.025
0
ARC
8
0
10
41.125
20
-16.025
40
0.5
50
180
51
270
0
ARC
8
0
10
54.125
20
-16.025
40
0.5
50
270
51
0
0
ARC
8
0
10
54.125
20
-3.025
40
0.5
50
0
51
90
0
ARC
8
0
10
41.125
20
-3.025
40
0.5
50
90
51
180
0
LINE
8
0
10
41.125
20
-16.525
11
54.125
21
-16.525
0
LINE
8
0
10
54.125
20
-2.525
11
41.125
21
-2.525
0
LINE
8
0
10
54.625
20
-16.025
11
54.625
21
-3.025
0
LINE
8
0
10
40.625
20
-3.025
11
40.625
21
-16.025
0
ARC
8
0
10
60.175
20
-16.025
40
0.5
50
180
51
270
0
ARC
8
0
10
73.175
20
-16.025
40
0.5
50
270
51
0
0
ARC
8
0
10
73.175
20
-3.025
40
0.5
50
0
51
90
0
ARC
8
0
10
60.175
20
-3.025
40
0.5
50
90
51
180
0
LINE
8
0
10
60.175
20
-16.525
11
73.175
21
-16.525
0
LINE
8
0
10
73.175
20
-2.525
11
60.175
21
-2.525
0
LINE
8
0
10
73.675
20
-16.025
11
73.675
21
-3.025
0
LINE
8
0
10
59.675
20
-3.025
11
59.675
21
-16.025
0
ARC
8
0
10
79.225
20
-16.025
40
0.5
50
180
51
270
0
ARC
8
0
10
92.225
20
-16.025
40
0.5
50
270
51
0
0
ARC
8
0
10
92.225
20
-3.025
40
0.5
50
0
51
90
0
ARC
8
0
10
79.225
20
-3.025
40
0.5
50
90
51
180
0
LINE
8
0
10
79.225
20
-16.525
11
92.225
21
-16.525
0
LINE
8
0
10
92.225
20
-2.525
11
79.225
21
-2.525
0
LINE
8
0
10
92.725
20
-16.025
11
92.725
21
-3.025
0
LINE
8
0
10
78.725
20
-3.025
11
78.725
21
-16.025
0
ARC
8
0
10
98.275
20
-16.025
40
0.5
50
180
51
270
0
ARC
8
0
10
111.275
20
-16.025
40
0.5
50
270
51
0
0
ARC
8
0
10
111.275
20
-3.025
40
0.5
50
0
51
90
0
ARC
8
0
10
98.275
20
-3.025
40
0.5
50
90
51
180
0
LINE
8
0
10
98.275
20
-16.525
11
111.275
21
-16.525
0
LINE
8
0
10
111.275
20
-2.525
11
98.275
21
-2.525
0
LINE
8
0
10
111.775
20
-16.025
11
111.775
21
-3.025
0
LINE
8
0
10
97.775
20
-3.025
11
97.775
21
-16.025
0
ARC
8
0
10
117.325
20
-16.025
40
0.5
50
180
51
270
0
ARC
8
0
10
130.325
20
-16.025
40
0.5
50
270
51
0
0
ARC
8
0
10
130.325
20
-3.025
40
0.5
50
0
51
90
0
ARC
8
0
10
117.325
20
-3.025
40
0.5
50
90
51
180
0
LINE
8
0
10
117.325
20
-16.525
11
130.325
21
-16.525
0
LINE
8
0
10
130.325
20
-2.525
11
117.325
21
-2.525
0
LINE
8
0
10
130.825
20
-16.025
11
130.825
21
-3.025
0
LINE
8
0
10
116.825
20
-3.025
11
116.825
21
-16.025
0
ARC
8
0
10
136.375
20
-16.025
40
0.5
50
180
51
270
0
ARC
8
0
10
149.375
20
-16.025
40
0.5
50
270
51
0
0
ARC
8
0
10
149.375
20
-3.025
40
0.5
50
0
51
90
0
ARC
8
0
10
136.375
20
-3.025
40
0.5
50
90
51
180
0
LINE
8
0
10
136.375
20
-16.525
11
149.375
21
-16.525
0
LINE
8
0
10
149.375
20
-2.525
11
136.375
21
-2.525
0
LINE
8
0
10
149.875
20
-16.025
11
149.875
21
-3.025
0
LINE
8
0
10
135.875
20
-3.025
11
135.875
21
-16.025
0
ARC
8
0
10
155.425
20
-16.025
40
0.5
50
180
51
270
0
ARC
8
0
10
168.425
20
-16.025
40
0.5
50
270
51
0
0
ARC
8
0
10
168.425
20
-3.025
40
0.5
50
0
51
90
0
ARC
8
0
10
155.425
20
-3.025
40
0.5
50
90
51
180
0
LINE
8
0
10
155.425
20
-16.525
11
168.425
21
-16.525
0
LINE
8
0
10
168.425
20
-2.525
11
155.425
21
-2.525
0
LINE
8
0
10
168.925
20
-16.025
11
168.925
21
-3.025
0
LINE
8
0
10
154.925
20
-3.025
11
154.925
21
-16.025
0
ARC
8
0
10
174.475
20
-16.025
40
0.5
50
180
51
270
0
ARC
8
0
10
187.475
20
-16.025
40
0.5
50
270
51
0
0
ARC
8
0
10
187.475
20
-3.025
40
0.5
50
0
51
90
0
ARC
8
0
10
174.475
20
-3.025
40
0.5
50
90
51
180
0
LINE
8
0
10
174.475
20
-16.525
11
187.475
21
-16.525
0
LINE
8
0
10
187.475
20
-2.525
11
174.475
21
-2.525
0
LINE
8
0
10
187.975
20
-16.025
11
187.975
21
-3.025
0
LINE
8
0
10
173.975
20
-3.025
11
173.975
21
-16.025
0
ARC
8
0
10
193.525
20
-16.025
40
0.5
50
180
51
270
0
ARC
8
0
10
206.525
20
-16.025
40
0.5
50
270
51
0
0
ARC
8
0
10
206.525
20
-3.025
40
0.5
50
0
51
90
0
ARC
8
0
10
193.525
20
-3.025
40
0.5
50
90
51
180
0
LINE
8
0
10
193.525
20
-16.525
11
206.525
21
-16.525
0
LINE
8
0
10
206.525
20
-2.525
11
193.525
21
-2.525
0
LINE
8
0
10
207.025
20
-16.025
11
207.025
21
-3.025
0
LINE
8
0
10
193.025
20
-3.025
11
193.025
21
-16.025
0
ARC
8
0
10
212.575
20
-16.025
40
0.5
50
180
51
270
0
ARC
8
0
10
225.575
20
-16.025
40
0.5
50
270
51
0
0
ARC
8
0
10
225.575
20
-3.025
40
0.5
50
0
51
90
0
ARC
8
0
10
212.575
20
-3.025
40
0.5
50
90
51
180
0
LINE
8
0
10
212.575
20
-16.525
11
225.575
21
-16.525
0
LINE
8
0
10
225.575
20
-2.525
11
212.575
21
-2.525
0
LINE
8
0
10
226.075
20
-16.025
11
226.075
21
-3.025
0
LINE
8
0
10
212.075
20
-3.025
11
212.075
21
-16.025
0
ARC
8
0
10
231.625
20
-16.025
40
0.5
50
180
51
270
0
ARC
8
0
10
244.625
20
-16.025
40
0.5
50
270
51
0
0
ARC
8
0
10
244.625
20
-3.025
40
0.5
50
0
51
90
0
ARC
8
0
10
231.625
20
-3.025
40
0.5
50
90
51
180
0
LINE
8
0
10
231.625
20
-16.525
11
244.625
21
-16.525
0
LINE
8
0
10
244.625
20
-2.525
11
231.625
21
-2.525
0
LINE
8
0
10
245.125
20
-16.025
11
245.125
21
-3.025
0
LINE
8
0
10
231.125
20
-3.025
11
231.125
21
-16.025
0
ARC
8
0
10
3.025
20
-35.075
40
0.5
50
180
51
270
0
ARC
8
0
10
16.025
20
-35.075
40
0.5
50
270
51
0
0
ARC
8
0
10
16.025
20
-22.075
40
0.5
50
0
51
90
0
ARC
8
0
10
3.025
20
-22.075
40
0.5
50
90
51
180
0
LINE
8
0
10
3.025
20
-35.575
11
16.025
21
-35.575
0
LINE
8
0
10
16.025
20
-21.575
11
3.025
21
-21.575
0
LINE
8
0
10
16.525
20
-35.075
11
16.525
21
-22.075
0
LINE
8
0
10
2.525
20
-22.075
11
2.525
21
-35.075
0
ARC
8
0
10
22.075
20
-35.075
40
0.5
50
180
51
270
0
ARC
8
0
10
35.075
20
-35.075
40
0.5
50
270
51
0
0
ARC
8
0
10
35.075
20
-22.075
40
0.5
50
0
51
90
0
ARC
8
0
10
22.075
20
-22.075
40
0.5
50
90
51
180
0
LINE
8
0
10
22.075
20
-35.575
11
35.075
21
-35.575
0
LINE
8
0
10
35.075
20
-21.575
11
22.075
21
-21.575
0
LINE
8
0
10
35.575
20
-35.075
11
35.575
21
-22.075
0
LINE
8
0
10
21.575
20
-22.075
11
21.575
21
-35.075
0
ARC
8
0
10
41.125
20
-35.075
40
0.5
50
180
51
270
0
ARC
8
0
10
54.125
20
-35.075
40
0.5
50
270
51
0
0
ARC
8
0
10
54.125
20
-22.075
40
0.5
50
0
51
90
0
ARC
8
0
10
41.125
20
-22.075
40
0.5
50
90
51
180
0
LINE
8
0
10
41.125
20
-35.575
11
54.125
21
-35.575
0
LINE
8
0
10
54.125
20
-21.575
11
41.125
21
-21.575
0
LINE
8
0
10
54.625
20
-35.075
11
54.625
21
-22.075
0
LINE
8
0
10
40.625
20
-22.075
11
40.625
21
-35.075
0
ARC
8
0
10
60.175
20
-35.075
40
0.5
50
180
51
270
0
ARC
8
0
10
73.175
20
-35.075
40
0.5
50
270
51
0
0
ARC
8
0
10
73.175
20
-22.075
40
0.5
50
0
51
90
0
ARC
8
0
10
60.175
20
-22.075
40
0.5
50
90
51
180
0
LINE
8
0
10
60.175
20
-35.575
11
73.175
21
-35.575
0
LINE
8
0
10
73.175
20
-21.575
11
60.175
21
-21.575
0
LINE
8
0
10
73.675
20
-35.075
11
73.675
21
-22.075
0
LINE
8
0
10
59.675
20
-22.075
11
59.675
21
-35.075
0
ARC
8
0
10
79.225
20
-35.075
40
0.5
50
180
51
270
0
ARC
8
0
10
92.225
20
-35.075
40
0.5
50
270
51
0
0
ARC
8
0
10
92.225
20
-22.075
40
0.5
50
0
51
90
0
ARC
8
0
10
79.225
20
-22.075
40
0.5
50
90
51
180
0
LINE
8
0
10
79.225
20
-35.575
11
92.225
21
-35.575
0
LINE
8
0
10
92.225
20
-21.575
11
79.225
21
-21.575
0
LINE
8
0
10
92.725
20
-35.075
11
92.725
21
-22.075
0
LINE
8
0
10
78.725
20
-22.075
11
78.725
21
-35.075
0
ARC
8
0
10
98.275
20
-35.075
40
0.5
50
180
51
270
0
ARC
8
0
10
111.275
20
-35.075
40
0.5
50
270
51
0
0
ARC
8
0
10
111.275
20
-22.075
40
0.5
50
0
51
90
0
ARC
8
0
10
98.275
20
-22.075
40
0.5
50
90
51
180
0
LINE
8
0
10
98.275
20
-35.575
11
111.275
21
-35.575
0
LINE
8
0
10
111.275
20
-21.575
11
98.275
21
-21.575
0
LINE
8
0
10
111.775
20
-35.075
11
111.775
21
-22.075
0
LINE
8
0
10
97.775
20
-22.075
11
97.775
21
-35.075
0
ARC
8
0
10
117.325
20
-35.075
40
0.5
50
180
51
270
0
ARC
8
0
10
130.325
20
-35.075
40
0.5
50
270
51
0
0
ARC
8
0
10
130.325
20
-22.075
40
0.5
50
0
51
90
0
ARC
8
0
10
117.325
20
-22.075
40
0.5
50
90
51
180
0
LINE
8
0
10
117.325
20
-35.575
11
130.325
21
-35.575
0
LINE
8
0
10
130.325
20
-21.575
11
117.325
21
-21.575
0
LINE
8
0
10
130.825
20
-35.075
11
130.825
21
-22.075
0
LINE
8
0
10
116.825
20
-22.075
11
116.825
21
-35.075
0
ARC
8
0
10
136.375
20
-35.075
40
0.5
50
180
51
270
0
ARC
8
0
10
149.375
20
-35.075
40
0.5
50
270
51
0
0
ARC
8
0
10
149.375
20
-22.075
40
0.5
50
0
51
90
0
ARC
8
0
10
136.375
20
-22.075
40
0.5
50
90
51
180
0
LINE
8
0
10
136.375
20
-35.575
11
149.375
21
-35.575
0
LINE
8
0
10
149.375
20
-21.575
11
136.375
21
-21.575
0
LINE
8
0
10
149.875
20
-35.075
11
149.875
21
-22.075
0
LINE
8
0
10
135.875
20
-22.075
11
135.875
21
-35.075
0
ARC
8
0
10
155.425
20
-35.075
40
0.5
50
180
51
270
0
ARC
8
0
10
168.425
20
-35.075
40
0.5
50
270
51
0
0
ARC
8
0
10
168.425
20
-22.075
40
0.5
50
0
51
90
0
ARC
8
0
10
155.425
20
-22.075
40
0.5
50
90
51
180
0
LINE
8
0
10
155.425
20
-35.575
11
168.425
21
-35.575
0
LINE
8
0
10
168.425
20
-21.575
11
155.425
21
-21.575
0
LINE
8
0
10
168.925
20
-35.075
11
168.925
21
-22.075
0
LINE
8
0
10
154.925
20
-22.075
11
154.925
21
-35.075
0
ARC
8
0
10
174.475
20
-35.075
40
0.5
50
180
51
270
0
ARC
8
0
10
187.475
20
-35.075
40
0.5
50
270
51
0
0
ARC
8
0
10
187.475
20
-22.075
40
0.5
50
0
51
90
0
ARC
8
0
10
174.475
20
-22.075
40
0.5
50
90
51
180
0
LINE
8
0
10
174.475
20
-35.575
11
187.475
21
-35.575
0
LINE
8
0
10
187.475
20
-21.575
11
174.475
21
-21.575
0
LINE
8
0
10
187.975
20
-35.075
11
187.975
21
-22.075
0
LINE
8
0
10
173.975
20
-22.075
11
173.975
21
-35.075
0
ARC
8
0
10
193.525
20
-35.075
40
0.5
50
180
51
270
0
ARC
8
0
10
206.525
20
-35.075
40
0.5
50
270
51
0
0
ARC
8
0
10
206.525
20
-22.075
40
0.5
50
0
51
90
0
ARC
8
0
10
193.525
20
-22.075
40
0.5
50
90
51
180
0
LINE
8
0
10
193.525
20
-35.575
11
206.525
21
-35.575
0
LINE
8
0
10
206.525
20
-21.575
11
193.525
21
-21.575
0
LINE
8
0
10
207.025
20
-35.075
11
207.025
21
-22.075
0
LINE
8
0
10
193.025
20
-22.075
11
193.025
21
-35.075
0
LINE
8
0
10
222.1
20
-35.575
11
225.575
21
-35.575
0
LINE
8
0
10
225.575
20
-35.575
11
231.625
21
-35.575
0
LINE
8
0
10
231.625
20
-35.575
11
235.1
21
-35.575
0
LINE
8
0
10
235.1
20
-21.575
11
231.625
21
-21.575
0
LINE
8
0
10
231.625
20
-21.575
11
225.575
21
-21.575
0
LINE
8
0
10
225.575
20
-21.575
11
222.1
21
-21.575
0
ARC
8
0
10
213.662
20
-36.075
40
0.5
50
180
51
270
0
ARC
8
0
10
219.662
20
-36.075
40
0.5
50
270
51
0
0
LINE
8
0
10
213.662
20
-36.575
11
219.662
21
-36.575
0
LINE
8
0
10
219.662
20
-21.575
11
213.662
21
-21.575
0
LINE
8
0
10
220.162
20
-36.075
11
220.162
21
-35.575
0
LINE
8
0
10
213.162
20
-35.575
11
213.162
21
-36.075
0
ARC
8
0
10
237.538
20
-36.075
40
0.5
50
180
51
270
0
ARC
8
0
10
243.538
20
-36.075
40
0.5
50
270
51
0
0
LINE
8
0
10
237.538
20
-36.575
11
243.538
21
-36.575
0
LINE
8
0
10
243.538
20
-21.575
11
237.538
21
-21.575
0
LINE
8
0
10
244.038
20
-36.075
11
244.038
21
-35.575
0
LINE
8
0
10
237.038
20
-35.575
11
237.038
21
-36.075
0
ARC
8
0
10
212.575
20
-35.075
40
0.5
50
180
51
270
0
ARC
8
0
10
212.575
20
-22.075
40
0.5
50
90
51
180
0
LINE
8
0
10
212.575
20
-35.575
11
213.162
21
-35.575
0
LINE
8
0
10
220.162
20
-35.575
11
222.1
21
-35.575
0
LINE
8
0
10
222.1
20
-21.575
11
219.662
21
-21.575
0
LINE
8
0
10
213.662
20
-21.575
11
212.575
21
-21.575
0
LINE
8
0
10
212.075
20
-22.075
11
212.075
21
-35.075
0
ARC
8
0
10
244.625
20
-35.075
40
0.5
50
270
51
0
0
ARC
8
0
10
244.625
20
-22.075
40
0.5
50
0
51
90
0
LINE
8
0
10
235.1
20
-35.575
11
237.038
21
-35.575
0
LINE
8
0
10
244.038
20
-35.575
11
244.625
21
-35.575
0
LINE
8
0
10
244.625
20
-21.575
11
243.538
21
-21.575
0
LINE
8
0
10
237.538
20
-21.575
11
235.1
21
-21.575
0
LINE
8
0
10
245.125
20
-35.075
11
245.125
21
-22.075
0
ARC
8
0
10
7.7875
20
-54.125
40
0.5
50
180
51
270
0
ARC
8
0
10
20.7875
20
-54.125
40
0.5
50
270
51
0
0
ARC
8
0
10
20.7875
20
-41.125
40
0.5
50
0
51
90
0
ARC
8
0
10
7.7875
20
-41.125
40
0.5
50
90
51
180
0
LINE
8
0
10
7.7875
20
-54.625
11
20.7875
21
-54.625
0
LINE
8
0
10
20.7875
20
-40.625
11
7.7875
21
-40.625
0
LINE
8
0
10
21.2875
20
-54.125
11
21.2875
21
-41.125
0
LINE
8
0
10
7.2875
20
-41.125
11
7.2875
21
-54.125
0
ARC
8
0
10
31.6
20
-54.125
40
0.5
50
180
51
270
0
ARC
8
0
10
44.6
20
-54.125
40
0.5
50
270
51
0
0
ARC
8
0
10
44.6
20
-41.125
40
0.5
50
0
51
90
0
ARC
8
0
10
31.6
20
-41.125
40
0.5
50
90
51
180
0
LINE
8
0
10
31.6
20
-54.625
11
44.6
21
-54.625
0
LINE
8
0
10
44.6
20
-40.625
11
31.6
21
-40.625
0
LINE
8
0
10
45.1
20
-54.125
11
45.1
21
-41.125
0
LINE
8
0
10
31.1
20
-41.125
11
31.1
21
-54.125
0
ARC
8
0
10
50.65
20
-54.125
40
0.5
50
180
51
270
0
ARC
8
0
10
63.65
20
-54.125
40
0.5
50
270
51
0
0
ARC
8
0
10
63.65
20
-41.125
40
0.5
50
0
51
90
0
ARC
8
0
10
50.65
20
-41.125
40
0.5
50
90
51
180
0
LINE
8
0
10
50.65
20
-54.625
11
63.65
21
-54.625
0
LINE
8
0
10
63.65
20
-40.625
11
50.65
21
-40.625
0
LINE
8
0
10
64.15
20
-54.125
11
64.15
21
-41.125
0
LINE
8
0
10
50.15
20
-41.125
11
50.15
21
-54.125
0
ARC
8
0
10
69.7
20
-54.125
40
0.5
50
180
51
270
0
ARC
8
0
10
82.7
20
-54.125
40
0.5
50
270
51
0
0
ARC
8
0
10
82.7
20
-41.125
40
0.5
50
0
51
90
0
ARC
8
0
10
69.7
20
-41.125
40
0.5
50
90
51
180
0
LINE
8
0
10
69.7
20
-54.625
11
82.7
21
-54.625
0
LINE
8
0
10
82.7
20
-40.625
11
69.7
21
-40.625
0
LINE
8
0
10
83.2
20
-54.125
11
83.2
21
-41.125
0
LINE
8
0
10
69.2
20
-41.125
11
69.2
21
-54.125
0
ARC
8
0
10
88.75
20
-54.125
40
0.5
50
180
51
270
0
ARC
8
0
10
101.75
20
-54.125
40
0.5
50
270
51
0
0
ARC
8
0
10
101.75
20
-41.125
40
0.5
50
0
51
90
0
ARC
8
0
10
88.75
20
-41.125
40
0.5
50
90
51
180
0
LINE
8
0
10
88.75
20
-54.625
11
101.75
21
-54.625
0
LINE
8
0
10
101.75
20
-40.625
11
88.75
21
-40.625
0
LINE
8
0
10
102.25
20
-54.125
11
102.25
21
-41.125
0
LINE
8
0
10
88.25
20
-41.125
11
88.25
21
-54.125
0
ARC
8
0
10
107.8
20
-54.125
40
0.5
50
180
51
270
0
ARC
8
0
10
120.8
20
-54.125
40
0.5
50
270
51
0
0
ARC
8
0
10
120.8
20
-41.125
40
0.5
50
0
51
90
0
ARC
8
0
10
107.8
20
-41.125
40
0.5
50
90
51
180
0
LINE
8
0
10
107.8
20
-54.625
11
120.8
21
-54.625
0
LINE
8
0
10
120.8
20
-40.625
11
107.8
21
-40.625
0
LINE
8
0
10
121.3
20
-54.125
11
121.3
21
-41.125
0
LINE
8
0
10
107.3
20
-41.125
11
107.3
21
-54.125
0
ARC
8
0
10
126.85
20
-54.125
40
0.5
50
180
51
270
0
ARC
8
0
10
139.85
20
-54.125
40
0.5
50
270
51
0
0
ARC
8
0
10
139.85
20
-41.125
40
0.5
50
0
51
90
0
ARC
8
0
10
126.85
20
-41.125
40
0.5
50
90
51
180
0
LINE
8
0
10
126.85
20
-54.625
11
139.85
21
-54.625
0
LINE
8
0
10
139.85
20
-40.625
11
126.85
21
-40.625
0
LINE
8
0
10
140.35
20
-54.125
11
140.35
21
-41.125
0
LINE
8
0
10
126.35
20
-41.125
11
126.35
21
-54.125
0
ARC
8
0
10
145.9
20
-54.125
40
0.5
50
180
51
270
0
ARC
8
0
10
158.9
20
-54.125
40
0.5
50
270
51
0
0
ARC
8
0
10
158.9
20
-41.125
40
0.5
50
0
51
90
0
ARC
8
0
10
145.9
20
-41.125
40
0.5
50
90
51
180
0
LINE
8
0
10
145.9
20
-54.625
11
158.9
21
-54.625
0
LINE
8
0
10
158.9
20
-40.625
11
145.9
21
-40.625
0
LINE
8
0
10
159.4
20
-54.125
11
159.4
21
-41.125
0
LINE
8
0
10
145.4
20
-41.125
11
145.4
21
-54.125
0
ARC
8
0
10
164.95
20
-54.125
40
0.5
50
180
51
270
0
ARC
8
0
10
177.95
20
-54.125
40
0.5
50
270
51
0
0
ARC
8
0
10
177.95
20
-41.125
40
0.5
50
0
51
90
0
ARC
8
0
10
164.95
20
-41.125
40
0.5
50
90
51
180
0
LINE
8
0
10
164.95
20
-54.625
11
177.95
21
-54.625
0
LINE
8
0
10
177.95
20
-40.625
11
164.95
21
-40.625
0
LINE
8
0
10
178.45
20
-54.125
11
178.45
21
-41.125
0
LINE
8
0
10
164.45
20
-41.125
11
164.45
21
-54.125
0
ARC
8
0
10
184
20
-54.125
40
0.5
50
180
51
270
0
ARC
8
0
10
197
20
-54.125
40
0.5
50
270
51
0
0
ARC
8
0
10
197
20
-41.125
40
0.5
50
0
51
90
0
ARC
8
0
10
184
20
-41.125
40
0.5
50
90
51
180
0
LINE
8
0
10
184
20
-54.625
11
197
21
-54.625
0
LINE
8
0
10
197
20
-40.625
11
184
21
-40.625
0
LINE
8
0
10
197.5
20
-54.125
11
197.5
21
-41.125
0
LINE
8
0
10
183.5
20
-41.125
11
183.5
21
-54.125
0
ARC
8
0
10
203.05
20
-54.125
40
0.5
50
180
51
270
0
ARC
8
0
10
216.05
20
-54.125
40
0.5
50
270
51
0
0
ARC
8
0
10
216.05
20
-41.125
40
0.5
50
0
51
90
0
ARC
8
0
10
203.05
20
-41.125
40
0.5
50
90
51
180
0
LINE
8
0
10
203.05
20
-54.625
11
216.05
21
-54.625
0
LINE
8
0
10
216.05
20
-40.625
11
203.05
21
-40.625
0
LINE
8
0
10
216.55
20
-54.125
11
216.55
21
-41.125
0
LINE
8
0
10
202.55
20
-41.125
11
202.55
21
-54.125
0
ARC
8
0
10
226.8625
20
-54.125
40
0.5
50
180
51
270
0
ARC
8
0
10
239.8625
20
-41.125
40
0.5
50
0
51
90
0
ARC
8
0
10
226.8625
20
-41.125
40
0.5
50
90
51
180
0
LINE
8
0
10
226.8625
20
-54.625
11
228.74375
21
-54.625
0
LINE
8
0
10
239.8625
20
-40.625
11
226.8625
21
-40.625
0
LINE
8
0
10
240.3625
20
-50.15
11
240.3625
21
-48.712
0
LINE
8
0
10
240.3625
20
-41.712
11
240.3625
21
-41.125
0
LINE
8
0
10
226.3625
20
-41.125
11
226.3625
21
-54.125
0
ARC
8
0
10
242.24375
20
-63.65
40
0.5
50
270
51
0
0
ARC
8
0
10
242.24375
20
-50.65
40
0.5
50
0
51
90
0
LINE
8
0
10
233.21875
20
-64.15
11
234.65675
21
-64.15
0
LINE
8
0
10
241.65675
20
-64.15
11
242.24375
21
-64.15
0
LINE
8
0
10
242.24375
20
-50.15
11
240.3625
21
-50.15
0
LINE
8
0
10
242.74375
20
-63.65
11
242.74375
21
-50.65
0
LINE
8
0
10
228.74375
20
-54.625
11
228.74375
21
-59.675
0
ARC
8
0
10
242.24375
20
-48.212
40
0.5
50
270
51
0
0
ARC
8
0
10
242.24375
20
-42.212
40
0.5
50
0
51
90
0
LINE
8
0
10
242.74375
20
-48.212
11
242.74375
21
-42.212
0
LINE
8
0
10
240.3625
20
-48.712
11
242.24375
21
-48.712
0
LINE
8
0
10
242.24375
20
-41.712
11
240.3625
21
-41.712
0
ARC
8
0
10
242.24375
20
-72.088
40
0.5
50
270
51
0
0
ARC
8
0
10
242.24375
20
-66.088
40
0.5
50
0
51
90
0
LINE
8
0
10
242.74375
20
-72.088
11
242.74375
21
-66.088
0
LINE
8
0
10
233.21875
20
-72.588
11
234.65675
21
-72.588
0
LINE
8
0
10
241.65675
20
-72.588
11
242.24375
21
-72.588
0
LINE
8
0
10
242.24375
20
-65.588
11
241.65675
21
-65.588
0
LINE
8
0
10
234.65675
20
-65.588
11
233.21875
21
-65.588
0
ARC
8
0
10
10.16875
20
-73.175
40
0.5
50
180
51
270
0
ARC
8
0
10
23.16875
20
-73.175
40
0.5
50
270
51
0
0
ARC
8
0
10
23.16875
20
-60.175
40
0.5
50
0
51
90
0
ARC
8
0
10
10.16875
20
-60.175
40
0.5
50
90
51
180
0
LINE
8
0
10
10.16875
20
-73.675
11
23.16875
21
-73.675
0
LINE
8
0
10
23.16875
20
-59.675
11
10.16875
21
-59.675
0
LINE
8
0
10
23.66875
20
-73.175
11
23.66875
21
-60.175
0
LINE
8
0
10
9.66875
20
-60.175
11
9.66875
21
-73.175
0
ARC
8
0
10
36.3625
20
-73.175
40
0.5
50
180
51
270
0
ARC
8
0
10
49.3625
20
-73.175
40
0.5
50
270
51
0
0
ARC
8
0
10
49.3625
20
-60.175
40
0.5
50
0
51
90
0
ARC
8
0
10
36.3625
20
-60.175
40
0.5
50
90
51
180
0
LINE
8
0
10
36.3625
20
-73.675
11
49.3625
21
-73.675
0
LINE
8
0
10
49.3625
20
-59.675
11
36.3625
21
-59.675
0
LINE
8
0
10
49.8625
20
-73.175
11
49.8625
21
-60.175
0
LINE
8
0
10
35.8625
20
-60.175
11
35.8625
21
-73.175
0
ARC
8
0
10
55.4125
20
-73.175
40
0.5
50
180
51
270
0
ARC
8
0
10
68.4125
20
-73.175
40
0.5
50
270
51
0
0
ARC
8
0
10
68.4125
20
-60.175
40
0.5
50
0
51
90
0
ARC
8
0
10
55.4125
20
-60.175
40
0.5
50
90
51
180
0
LINE
8
0
10
55.4125
20
-73.675
11
68.4125
21
-73.675
0
LINE
8
0
10
68.4125
20
-59.675
11
55.4125
21
-59.675
0
LINE
8
0
10
68.9125
20
-73.175
11
68.9125
21
-60.175
0
LINE
8
0
10
54.9125
20
-60.175
11
54.9125
21
-73.175
0
ARC
8
0
10
74.4625
20
-73.175
40
0.5
50
180
51
270
0
ARC
8
0
10
87.4625
20
-73.175
40
0.5
50
270
51
0
0
ARC
8
0
10
87.4625
20
-60.175
40
0.5
50
0
51
90
0
ARC
8
0
10
74.4625
20
-60.175
40
0.5
50
90
51
180
0
LINE
8
0
10
74.4625
20
-73.675
11
87.4625
21
-73.675
0
LINE
8
0
10
87.4625
20
-59.675
11
74.4625
21
-59.675
0
LINE
8
0
10
87.9625
20
-73.175
11
87.9625
21
-60.175
0
LINE
8
0
10
73.9625
20
-60.175
11
73.9625
21
-73.175
0
ARC
8
0
10
93.5125
20
-73.175
40
0.5
50
180
51
270
0
ARC
8
0
10
106.5125
20
-73.175
40
0.5
50
270
51
0
0
ARC
8
0
10
106.5125
20
-60.175
40
0.5
50
0
51
90
0
ARC
8
0
10
93.5125
20
-60.175
40
0.5
50
90
51
180
0
LINE
8
0
10
93.5125
20
-73.675
11
106.5125
21
-73.675
0
LINE
8
0
10
106.5125
20
-59.675
11
93.5125
21
-59.675
0
LINE
8
0
10
107.0125
20
-73.175
11
107.0125
21
-60.175
0
LINE
8
0
10
93.0125
20
-60.175
11
93.0125
21
-73.175
0
ARC
8
0
10
112.5625
20
-73.175
40
0.5
50
180
51
270
0
ARC
8
0
10
125.5625
20
-73.175
40
0.5
50
270
51
0
0
ARC
8
0
10
125.5625
20
-60.175
40
0.5
50
0
51
90
0
ARC
8
0
10
112.5625
20
-60.175
40
0.5
50
90
51
180
0
LINE
8
0
10
112.5625
20
-73.675
11
125.5625
21
-73.675
0
LINE
8
0
10
125.5625
20
-59.675
11
112.5625
21
-59.675
0
LINE
8
0
10
126.0625
20
-73.175
11
126.0625
21
-60.175
0
LINE
8
0
10
112.0625
20
-60.175
11
112.0625
21
-73.175
0
ARC
8
0
10
131.6125
20
-73.175
40
0.5
50
180
51
270
0
ARC
8
0
10
144.6125
20
-73.175
40
0.5
50
270
51
0
0
ARC
8
0
10
144.6125
20
-60.175
40
0.5
50
0
51
90
0
ARC
8
0
10
131.6125
20
-60.175
40
0.5
50
90
51
180
0
LINE
8
0
10
131.6125
20
-73.675
11
144.6125
21
-73.675
0
LINE
8
0
10
144.6125
20
-59.675
11
131.6125
21
-59.675
0
LINE
8
0
10
145.1125
20
-73.175
11
145.1125
21
-60.175
0
LINE
8
0
10
131.1125
20
-60.175
11
131.1125
21
-73.175
0
ARC
8
0
10
150.6625
20
-73.175
40
0.5
50
180
51
270
0
ARC
8
0
10
163.6625
20
-73.175
40
0.5
50
270
51
0
0
ARC
8
0
10
163.6625
20
-60.175
40
0.5
50
0
51
90
0
ARC
8
0
10
150.6625
20
-60.175
40
0.5
50
90
51
180
0
LINE
8
0
10
150.6625
20
-73.675
11
163.6625
21
-73.675
0
LINE
8
0
10
163.6625
20
-59.675
11
150.6625
21
-59.675
0
LINE
8
0
10
164.1625
20
-73.175
11
164.1625
21
-60.175
0
LINE
8
0
10
150.1625
20
-60.175
11
150.1625
21
-73.175
0
ARC
8
0
10
169.7125
20
-73.175
40
0.5
50
180
51
270
0
ARC
8
0
10
182.7125
20
-73.175
40
0.5
50
270
51
0
0
ARC
8
0
10
182.7125
20
-60.175
40
0.5
50
0
51
90
0
ARC
8
0
10
169.7125
20
-60.175
40
0.5
50
90
51
180
0
LINE
8
0
10
169.7125
20
-73.675
11
182.7125
21
-73.675
0
LINE
8
0
10
182.7125
20
-59.675
11
169.7125
21
-59.675
0
LINE
8
0
10
183.2125
20
-73.175
11
183.2125
21
-60.175
0
LINE
8
0
10
169.2125
20
-60.175
11
169.2125
21
-73.175
0
ARC
8
0
10
188.7625
20
-73.175
40
0.5
50
180
51
270
0
ARC
8
0
10
201.7625
20
-73.175
40
0.5
50
270
51
0
0
ARC
8
0
10
201.7625
20
-60.175
40
0.5
50
0
51
90
0
ARC
8
0
10
188.7625
20
-60.175
40
0.5
50
90
51
180
0
LINE
8
0
10
188.7625
20
-73.675
11
201.7625
21
-73.675
0
LINE
8
0
10
201.7625
20
-59.675
11
188.7625
21
-59.675
0
LINE
8
0
10
202.2625
20
-73.175
11
202.2625
21
-60.175
0
LINE
8
0
10
188.2625
20
-60.175
11
188.2625
21
-73.175
0
ARC
8
0
10
207.8125
20
-73.175
40
0.5
50
180
51
270
0
ARC
8
0
10
207.8125
20
-60.175
40
0.5
50
90
51
180
0
LINE
8
0
10
207.8125
20
-73.675
11
211.28075
21
-73.675
0
LINE
8
0
10
219.71875
20
-73.675
11
220.8125
21
-73.675
0
LINE
8
0
10
211.28075
20
-73.675
11
217.28075
21
-73.675
0
LINE
8
0
10
217.28075
20
-73.675
11
219.71875
21
-73.675
0
LINE
8
0
10
220.8125
20
-59.675
11
219.71875
21
-59.675
0
LINE
8
0
10
219.71875
20
-59.675
11
217.78075
21
-59.675
0
LINE
8
0
10
210.78075
20
-59.675
11
207.8125
21
-59.675
0
LINE
8
0
10
207.3125
20
-60.175
11
207.3125
21
-73.175
0
ARC
8
0
10
232.71875
20
-73.175
40
0.5
50
270
51
0
0
LINE
8
0
10
220.8125
20
-73.675
11
232.71875
21
-73.675
0
LINE
8
0
10
228.74375
20
-59.675
11
220.8125
21
-59.675
0
LINE
8
0
10
233.21875
20
-73.175
11
233.21875
21
-72.588
0
LINE
8
0
10
233.21875
20
-65.588
11
233.21875
21
-64.15
0
ARC
8
0
10
235.15675
20
-73.175
40
0.5
50
180
51
270
0
ARC
8
0
10
241.15675
20
-73.175
40
0.5
50
270
51
0
0
LINE
8
0
10
235.15675
20
-73.675
11
241.15675
21
-73.675
0
LINE
8
0
10
234.65675
20
-64.15
11
234.65675
21
-65.588
0
LINE
8
0
10
234.65675
20
-72.588
11
234.65675
21
-73.175
0
LINE
8
0
10
241.65675
20
-73.175
11
241.65675
21
-72.588
0
LINE
8
0
10
241.65675
20
-65.588
11
241.65675
21
-64.15
0
ARC
8
0
10
217.28075
20
-59.175
40
0.5
50
0
51
90
0
ARC
8
0
10
211.28075
20
-59.175
40
0.5
50
90
51
180
0
LINE
8
0
10
217.28075
20
-58.675
11
211.28075
21
-58.675
0
LINE
8
0
10
210.78075
20
-59.175
11
210.78075
21
-59.675
0
LINE
8
0
10
217.78075
20
-59.675
11
217.78075
21
-59.175
0
ARC
8
0
10
12.55
20
-92.225
40
0.5
50
180
51
270
0
ARC
8
0
10
25.55
20
-92.225
40
0.5
50
270
51
0
0
ARC
8
0
10
25.55
20
-79.225
40
0.5
50
0
51
90
0
ARC
8
0
10
12.55
20
-79.225
40
0.5
50
90
51
180
0
LINE
8
0
10
12.55
20
-92.725
11
25.55
21
-92.725
0
LINE
8
0
10
25.55
20
-78.725
11
12.55
21
-78.725
0
LINE
8
0
10
26.05
20
-92.225
11
26.05
21
-79.225
0
LINE
8
0
10
12.05
20
-79.225
11
12.05
21
-92.225
0
ARC
8
0
10
4.112
20
-93.225
40
0.5
50
180
51
270
0
ARC
8
0
10
10.112
20
-93.225
40
0.5
50
270
51
0
0
ARC
8
0
10
10.112
20
-79.225
40
0.5
50
0
51
90
0
ARC
8
0
10
4.112
20
-79.225
40
0.5
50
90
51
180
0
LINE
8
0
10
4.112
20
-93.725
11
10.112
21
-93.725
0
LINE
8
0
10
10.112
20
-78.725
11
4.112
21
-78.725
0
LINE
8
0
10
10.612
20
-93.225
11
10.612
21
-79.225
0
LINE
8
0
10
3.612
20
-79.225
11
3.612
21
-93.225
0
ARC
8
0
10
27.988
20
-93.225
40
0.5
50
180
51
270
0
ARC
8
0
10
33.988
20
-93.225
40
0.5
50
270
51
0
0
ARC
8
0
10
33.988
20
-79.225
40
0.5
50
0
51
90
0
ARC
8
0
10
27.988
20
-79.225
40
0.5
50
90
51
180
0
LINE
8
0
10
27.988
20
-93.725
11
33.988
21
-93.725
0
LINE
8
0
10
33.988
20
-78.725
11
27.988
21
-78.725
0
LINE
8
0
10
34.488
20
-93.225
11
34.488
21
-79.225
0
LINE
8
0
10
27.488
20
-79.225
11
27.488
21
-93.225
0
ARC
8
0
10
41.125
20
-92.225
40
0.5
50
180
51
270
0
ARC
8
0
10
54.125
20
-92.225
40
0.5
50
270
51
0
0
ARC
8
0
10
54.125
20
-79.225
40
0.5
50
0
51
90
0
ARC
8
0
10
41.125
20
-79.225
40
0.5
50
90
51
180
0
LINE
8
0
10
41.125
20
-92.725
11
54.125
21
-92.725
0
LINE
8
0
10
54.125
20
-78.725
11
41.125
21
-78.725
0
LINE
8
0
10
54.625
20
-92.225
11
54.625
21
-79.225
0
LINE
8
0
10
40.625
20
-79.225
11
40.625
21
-92.225
0
ARC
8
0
10
60.175
20
-92.225
40
0.5
50
180
51
270
0
ARC
8
0
10
73.175
20
-92.225
40
0.5
50
270
51
0
0
ARC
8
0
10
73.175
20
-79.225
40
0.5
50
0
51
90
0
ARC
8
0
10
60.175
20
-79.225
40
0.5
50
90
51
180
0
LINE
8
0
10
60.175
20
-92.725
11
73.175
21
-92.725
0
LINE
8
0
10
73.175
20
-78.725
11
60.175
21
-78.725
0
LINE
8
0
10
73.675
20
-92.225
11
73.675
21
-79.225
0
LINE
8
0
10
59.675
20
-79.225
11
59.675
21
-92.225
0
ARC
8
0
10
79.225
20
-92.225
40
0.5
50
180
51
270
0
ARC
8
0
10
92.225
20
-92.225
40
0.5
50
270
51
0
0
ARC
8
0
10
92.225
20
-79.225
40
0.5
50
0
51
90
0
ARC
8
0
10
79.225
20
-79.225
40
0.5
50
90
51
180
0
LINE
8
0
10
79.225
20
-92.725
11
92.225
21
-92.725
0
LINE
8
0
10
92.225
20
-78.725
11
79.225
21
-78.725
0
LINE
8
0
10
92.725
20
-92.225
11
92.725
21
-79.225
0
LINE
8
0
10
78.725
20
-79.225
11
78.725
21
-92.225
0
ARC
8
0
10
98.275
20
-92.225
40
0.5
50
180
51
270
0
ARC
8
0
10
111.275
20
-92.225
40
0.5
50
270
51
0
0
ARC
8
0
10
111.275
20
-79.225
40
0.5
50
0
51
90
0
ARC
8
0
10
98.275
20
-79.225
40
0.5
50
90
51
180
0
LINE
8
0
10
98.275
20
-92.725
11
111.275
21
-92.725
0
LINE
8
0
10
111.275
20
-78.725
11
98.275
21
-78.725
0
LINE
8
0
10
111.775
20
-92.225
11
111.775
21
-79.225
0
LINE
8
0
10
97.775
20
-79.225
11
97.775
21
-92.225
0
ARC
8
0
10
117.325
20
-92.225
40
0.5
50
180
51
270
0
ARC
8
0
10
130.325
20
-92.225
40
0.5
50
270
51
0
0
ARC
8
0
10
130.325
20
-79.225
40
0.5
50
0
51
90
0
ARC
8
0
10
117.325
20
-79.225
40
0.5
50
90
51
180
0
LINE
8
0
10
117.325
20
-92.725
11
130.325
21
-92.725
0
LINE
8
0
10
130.325
20
-78.725
11
117.325
21
-78.725
0
LINE
8
0
10
130.825
20
-92.225
11
130.825
21
-79.225
0
LINE
8
0
10
116.825
20
-79.225
11
116.825
21
-92.225
0
ARC
8
0
10
136.375
20
-92.225
40
0.5
50
180
51
270
0
ARC
8
0
10
149.375
20
-92.225
40
0.5
50
270
51
0
0
ARC
8
0
10
149.375
20
-79.225
40
0.5
50
0
51
90
0
ARC
8
0
10
136.375
20
-79.225
40
0.5
50
90
51
180
0
LINE
8
0
10
136.375
20
-92.725
11
149.375
21
-92.725
0
LINE
8
0
10
149.375
20
-78.725
11
136.375
21
-78.725
0
LINE
8
0
10
149.875
20
-92.225
11
149.875
21
-79.225
0
LINE
8
0
10
135.875
20
-79.225
11
135.875
21
-92.225
0
ARC
8
0
10
155.425
20
-92.225
40
0.5
50
180
51
270
0
ARC
8
0
10
168.425
20
-92.225
40
0.5
50
270
51
0
0
ARC
8
0
10
168.425
20
-79.225
40
0.5
50
0
51
90
0
ARC
8
0
10
155.425
20
-79.225
40
0.5
50
90
51
180
0
LINE
8
0
10
155.425
20
-92.725
11
168.425
21
-92.725
0
LINE
8
0
10
168.425
20
-78.725
11
155.425
21
-78.725
0
LINE
8
0
10
168.925
20
-92.225
11
168.925
21
-79.225
0
LINE
8
0
10
154.925
20
-79.225
11
154.925
21
-92.225
0
ARC
8
0
10
174.475
20
-92.225
40
0.5
50
180
51
270
0
ARC
8
0
10
187.475
20
-92.225
40
0.5
50
270
51
0
0
ARC
8
0
10
187.475
20
-79.225
40
0.5
50
0
51
90
0
ARC
8
0
10
174.475
20
-79.225
40
0.5
50
90
51
180
0
LINE
8
0
10
174.475
20
-92.725
11
187.475
21
-92.725
0
LINE
8
0
10
187.475
20
-78.725
11
174.475
21
-78.725
0
LINE
8
0
10
187.975
20
-92.225
11
187.975
21
-79.225
0
LINE
8
0
10
173.975
20
-79.225
11
173.975
21
-92.225
0
ARC
8
0
10
193.525
20
-92.225
40
0.5
50
180
51
270
0
ARC
8
0
10
206.525
20
-92.225
40
0.5
50
270
51
0
0
ARC
8
0
10
206.525
20
-79.225
40
0.5
50
0
51
90
0
ARC
8
0
10
193.525
20
-79.225
40
0.5
50
90
51
180
0
LINE
8
0
10
193.525
20
-92.725
11
206.525
21
-92.725
0
LINE
8
0
10
206.525
20
-78.725
11
193.525
21
-78.725
0
LINE
8
0
10
207.025
20
-92.225
11
207.025
21
-79.225
0
LINE
8
0
10
193.025
20
-79.225
11
193.025
21
-92.225
0
ARC
8
0
10
222.1
20
-92.225
40
0.5
50
180
51
270
0
ARC
8
0
10
235.1
20
-92.225
40
0.5
50
270
51
0
0
ARC
8
0
10
235.1
20
-79.225
40
0.5
50
0
51
90
0
ARC
8
0
10
222.1
20
-79.225
40
0.5
50
90
51
180
0
LINE
8
0
10
222.1
20
-92.725
11
235.1
21
-92.725
0
LINE
8
0
10
235.1
20
-78.725
11
222.1
21
-78.725
0
LINE
8
0
10
235.6
20
-92.225
11
235.6
21
-79.225
0
LINE
8
0
10
221.6
20
-79.225
11
221.6
21
-92.225
0
ARC
8
0
10
213.662
20
-93.225
40
0.5
50
180
51
270
0
ARC
8
0
10
219.662
20
-93.225
40
0.5
50
270
51
0
0
ARC
8
0
10
219.662
20
-79.225
40
0.5
50
0
51
90
0
ARC
8
0
10
213.662
20
-79.225
40
0.5
50
90
51
180
0
LINE
8
0
10
213.662
20
-93.725
11
219.662
21
-93.725
0
LINE
8
0
10
219.662
20
-78.725
11
213.662
21
-78.725
0
LINE
8
0
10
220.162
20
-93.225
11
220.162
21
-79.225
0
LINE
8
0
10
213.162
20
-79.225
11
213.162
21
-93.225
0
ARC
8
0
10
237.538
20
-93.225
40
0.5
50
180
51
270
0
ARC
8
0
10
243.538
20
-93.225
40
0.5
50
270
51
0
0
ARC
8
0
10
243.538
20
-79.225
40
0.5
50
0
51
90
0
ARC
8
0
10
237.538
20
-79.225
40
0.5
50
90
51
180
0
LINE
8
0
10
237.538
20
-93.725
11
243.538
21
-93.725
0
LINE
8
0
10
243.538
20
-78.725
11
237.538
21
-78.725
0
LINE
8
0
10
244.038
20
-93.225
11
244.038
21
-79.225
0
LINE
8
0
10
237.038
20
-79.225
11
237.038
21
-93.225
0
ARC
8
0
10
61.26875
20
-111.275
40
0.5
50
270
51
271.432544
0
LINE
8
0
10
48.26875
20
-111.775
11
58.8875
21
-111.775
0
LINE
8
0
10
58.8875
20
-111.775
11
61.26875
21
-111.775
0
LINE
8
0
10
60.79375
20
-97.775
11
58.8875
21
-97.775
0
LINE
8
0
10
58.8875
20
-97.775
11
48.26875
21
-97.775
0
ARC
8
0
10
45.8875
20
-111.275
40
0.5
50
180
51
270
0
ARC
8
0
10
45.8875
20
-98.275
40
0.5
50
90
51
180
0
LINE
8
0
10
45.8875
20
-111.775
11
48.26875
21
-111.775
0
LINE
8
0
10
48.26875
20
-97.775
11
45.8875
21
-97.775
0
LINE
8
0
10
45.3875
20
-98.275
11
45.3875
21
-111.275
0
LINE
8
0
10
76.84375
20
-111.775
11
77.9375
21
-111.775
0
LINE
8
0
10
77.9375
20
-111.775
11
79.2
21
-111.775
0
LINE
8
0
10
79.2
20
-111.775
11
80.31875
21
-111.775
0
LINE
8
0
10
80.31875
20
-111.775
11
82.7
21
-111.775
0
LINE
8
0
10
82.7
20
-111.775
11
87.45575
21
-111.775
0
LINE
8
0
10
87.45575
20
-111.775
11
88.75
21
-111.775
0
LINE
8
0
10
88.75
20
-111.775
11
89.837
21
-111.775
0
LINE
8
0
10
89.837
20
-111.775
11
89.84375
21
-111.775
0
LINE
8
0
10
86.95575
20
-97.775
11
82.7
21
-97.775
0
LINE
8
0
10
82.7
20
-97.775
11
80.31875
21
-97.775
0
LINE
8
0
10
80.31875
20
-97.775
11
79.7
21
-97.775
0
ARC
8
0
10
105.39375
20
-97.275
40
0.5
50
0
51
90
0
ARC
8
0
10
99.39375
20
-97.275
40
0.5
50
90
51
180
0
LINE
8
0
10
105.39375
20
-96.775
11
99.39375
21
-96.775
0
LINE
8
0
10
99.39375
20
-111.775
11
101.75
21
-111.775
0
LINE
8
0
10
101.75
20
-111.775
11
105.39375
21
-111.775
0
LINE
8
0
10
98.89375
20
-97.275
11
98.89375
21
-97.775
0
LINE
8
0
10
105.89375
20
-97.775
11
105.89375
21
-97.275
0
ARC
8
0
10
67.29375
20
-97.275
40
0.5
50
0
51
90
0
ARC
8
0
10
61.29375
20
-97.275
40
0.5
50
90
51
180
0
ARC
8
0
10
61.29375
20
-111.275
40
0.5
50
268.567456
51
270
0
LINE
8
0
10
67.29375
20
-96.775
11
61.29375
21
-96.775
0
LINE
8
0
10
61.29375
20
-111.775
11
64.9375
21
-111.775
0
LINE
8
0
10
64.9375
20
-111.775
11
67.29375
21
-111.775
0
LINE
8
0
10
60.79375
20
-97.275
11
60.79375
21
-97.775
0
LINE
8
0
10
67.79375
20
-97.775
11
67.79375
21
-97.275
0
LINE
8
0
10
67.31875
20
-111.775
11
69.7
21
-111.775
0
LINE
8
0
10
69.7
20
-111.775
11
73.2
21
-111.775
0
LINE
8
0
10
73.2
20
-111.775
11
76.84375
21
-111.775
0
LINE
8
0
10
72.7
20
-97.775
11
69.7
21
-97.775
0
LINE
8
0
10
69.7
20
-97.775
11
67.79375
21
-97.775
0
LINE
8
0
10
67.29375
20
-111.775
11
67.31875
21
-111.775
0
LINE
8
0
10
89.84375
20
-111.775
11
93.45575
21
-111.775
0
LINE
8
0
10
95.89375
20
-111.775
11
98.275
21
-111.775
0
LINE
8
0
10
98.275
20
-111.775
11
99.39375
21
-111.775
0
LINE
8
0
10
93.45575
20
-111.775
11
95.837
21
-111.775
0
LINE
8
0
10
95.837
20
-111.775
11
95.89375
21
-111.775
0
LINE
8
0
10
98.89375
20
-97.775
11
98.275
21
-97.775
0
LINE
8
0
10
98.275
20
-97.775
11
96.337
21
-97.775
0
ARC
8
0
10
111.3
20
-97.275
40
0.5
50
90
51
180
0
ARC
8
0
10
111.3
20
-111.275
40
0.5
50
268.567456
51
270
0
LINE
8
0
10
117.3
20
-96.775
11
113.713
21
-96.775
0
LINE
8
0
10
113.713
20
-96.775
11
111.33175
21
-96.775
0
LINE
8
0
10
111.33175
20
-96.775
11
111.3
21
-96.775
0
LINE
8
0
10
111.3
20
-111.775
11
111.33175
21
-111.775
0
LINE
8
0
10
111.33175
20
-111.775
11
113.713
21
-111.775
0
LINE
8
0
10
113.713
20
-111.775
11
117.3
21
-111.775
0
LINE
8
0
10
110.8
20
-97.275
11
110.8
21
-97.775
0
ARC
8
0
10
79.2
20
-97.275
40
0.5
50
0
51
90
0
ARC
8
0
10
73.2
20
-97.275
40
0.5
50
90
51
180
0
LINE
8
0
10
79.2
20
-96.775
11
73.2
21
-96.775
0
LINE
8
0
10
72.7
20
-97.275
11
72.7
21
-97.775
0
LINE
8
0
10
79.7
20
-97.775
11
79.7
21
-97.275
0
LINE
8
0
10
105.39375
20
-111.775
11
108.89375
21
-111.775
0
LINE
8
0
10
108.89375
20
-97.775
11
105.89375
21
-97.775
0
LINE
8
0
10
117.33175
20
-96.775
11
117.3
21
-96.775
0
LINE
8
0
10
117.3
20
-111.775
11
117.33175
21
-111.775
0
ARC
8
0
10
87.45575
20
-97.275
40
0.5
50
90
51
180
0
LINE
8
0
10
93.45575
20
-96.775
11
89.837
21
-96.775
0
LINE
8
0
10
89.837
20
-96.775
11
87.45575
21
-96.775
0
LINE
8
0
10
86.95575
20
-97.275
11
86.95575
21
-97.775
0
ARC
8
0
10
111.275
20
-111.275
40
0.5
50
270
51
271.432544
0
LINE
8
0
10
108.89375
20
-111.775
11
111.275
21
-111.775
0
LINE
8
0
10
110.8
20
-97.775
11
108.89375
21
-97.775
0
ARC
8
0
10
119.713
20
-97.275
40
0.5
50
0
51
90
0
ARC
8
0
10
119.713
20
-111.275
40
0.5
50
270
51
0
0
LINE
8
0
10
119.713
20
-96.775
11
117.33175
21
-96.775
0
LINE
8
0
10
117.33175
20
-111.775
11
119.713
21
-111.775
0
LINE
8
0
10
120.213
20
-111.275
11
120.213
21
-97.275
0
ARC
8
0
10
95.837
20
-97.275
40
0.5
50
0
51
90
0
LINE
8
0
10
95.837
20
-96.775
11
93.45575
21
-96.775
0
LINE
8
0
10
96.337
20
-97.775
11
96.337
21
-97.275
0
ARC
8
0
10
136.375
20
-111.275
40
0.5
50
268.567456
51
270
0
LINE
8
0
10
136.375
20
-111.775
11
138.75625
21
-111.775
0
LINE
8
0
10
138.75625
20
-111.775
11
142.25625
21
-111.775
0
LINE
8
0
10
142.25625
20
-111.775
11
145.9
21
-111.775
0
LINE
8
0
10
145.9
20
-111.775
11
148.25625
21
-111.775
0
LINE
8
0
10
148.25625
20
-111.775
11
149.375
21
-111.775
0
LINE
8
0
10
149.375
20
-97.775
11
148.75625
21
-97.775
0
LINE
8
0
10
141.75625
20
-97.775
11
138.75625
21
-97.775
0
LINE
8
0
10
138.75625
20
-97.775
11
136.85
21
-97.775
0
ARC
8
0
10
151.813
20
-97.275
40
0.5
50
90
51
180
0
LINE
8
0
10
157.813
20
-96.775
11
154.19425
21
-96.775
0
LINE
8
0
10
154.19425
20
-96.775
11
151.813
21
-96.775
0
LINE
8
0
10
151.813
20
-111.775
11
154.19425
21
-111.775
0
LINE
8
0
10
154.19425
20
-111.775
11
157.80625
21
-111.775
0
LINE
8
0
10
157.80625
20
-111.775
11
157.813
21
-111.775
0
LINE
8
0
10
151.313
20
-97.275
11
151.313
21
-97.775
0
ARC
8
0
10
127.937
20
-97.275
40
0.5
50
90
51
180
0
ARC
8
0
10
127.937
20
-111.275
40
0.5
50
180
51
270
0
LINE
8
0
10
133.937
20
-96.775
11
130.35
21
-96.775
0
LINE
8
0
10
130.35
20
-96.775
11
130.31825
21
-96.775
0
LINE
8
0
10
130.31825
20
-96.775
11
127.937
21
-96.775
0
LINE
8
0
10
127.937
20
-111.775
11
130.31825
21
-111.775
0
LINE
8
0
10
130.31825
20
-111.775
11
130.35
21
-111.775
0
LINE
8
0
10
130.35
20
-111.775
11
133.937
21
-111.775
0
LINE
8
0
10
127.437
20
-97.275
11
127.437
21
-111.275
0
LINE
8
0
10
149.375
20
-111.775
11
151.75625
21
-111.775
0
LINE
8
0
10
151.313
20
-97.775
11
149.375
21
-97.775
0
ARC
8
0
10
160.19425
20
-97.275
40
0.5
50
0
51
90
0
LINE
8
0
10
160.19425
20
-96.775
11
157.813
21
-96.775
0
LINE
8
0
10
157.813
20
-111.775
11
158.9
21
-111.775
0
LINE
8
0
10
158.9
20
-111.775
11
160.19425
21
-111.775
0
LINE
8
0
10
160.69425
20
-97.775
11
160.69425
21
-97.275
0
LINE
8
0
10
136.31825
20
-96.775
11
133.937
21
-96.775
0
LINE
8
0
10
133.937
20
-111.775
11
136.31825
21
-111.775
0
LINE
8
0
10
151.75625
20
-111.775
11
151.813
21
-111.775
0
ARC
8
0
10
174.45
20
-97.275
40
0.5
50
0
51
90
0
ARC
8
0
10
168.45
20
-97.275
40
0.5
50
90
51
180
0
LINE
8
0
10
174.45
20
-96.775
11
168.45
21
-96.775
0
LINE
8
0
10
168.45
20
-111.775
11
169.7125
21
-111.775
0
LINE
8
0
10
169.7125
20
-111.775
11
170.80625
21
-111.775
0
LINE
8
0
10
170.80625
20
-111.775
11
174.45
21
-111.775
0
LINE
8
0
10
167.95
20
-97.275
11
167.95
21
-97.775
0
LINE
8
0
10
174.95
20
-97.775
11
174.95
21
-97.275
0
ARC
8
0
10
136.35
20
-97.275
40
0.5
50
0
51
90
0
ARC
8
0
10
136.35
20
-111.275
40
0.5
50
270
51
271.432544
0
LINE
8
0
10
136.35
20
-96.775
11
136.31825
21
-96.775
0
LINE
8
0
10
136.31825
20
-111.775
11
136.35
21
-111.775
0
LINE
8
0
10
136.85
20
-97.775
11
136.85
21
-97.275
0
LINE
8
0
10
160.19425
20
-111.775
11
164.95
21
-111.775
0
LINE
8
0
10
164.95
20
-111.775
11
167.33125
21
-111.775
0
LINE
8
0
10
167.33125
20
-111.775
11
168.45
21
-111.775
0
LINE
8
0
10
167.95
20
-97.775
11
167.33125
21
-97.775
0
LINE
8
0
10
167.33125
20
-97.775
11
164.95
21
-97.775
0
LINE
8
0
10
164.95
20
-97.775
11
160.69425
21
-97.775
0
ARC
8
0
10
186.35625
20
-97.275
40
0.5
50
0
51
90
0
ARC
8
0
10
180.35625
20
-97.275
40
0.5
50
90
51
180
0
ARC
8
0
10
186.35625
20
-111.275
40
0.5
50
270
51
271.432544
0
LINE
8
0
10
186.35625
20
-96.775
11
180.35625
21
-96.775
0
LINE
8
0
10
180.35625
20
-111.775
11
182.7125
21
-111.775
0
LINE
8
0
10
182.7125
20
-111.775
11
186.35625
21
-111.775
0
LINE
8
0
10
179.85625
20
-97.275
11
179.85625
21
-97.775
0
LINE
8
0
10
186.85625
20
-97.775
11
186.85625
21
-97.275
0
ARC
8
0
10
148.25625
20
-97.275
40
0.5
50
0
51
90
0
ARC
8
0
10
142.25625
20
-97.275
40
0.5
50
90
51
180
0
LINE
8
0
10
148.25625
20
-96.775
11
142.25625
21
-96.775
0
LINE
8
0
10
141.75625
20
-97.275
11
141.75625
21
-97.775
0
LINE
8
0
10
148.75625
20
-97.775
11
148.75625
21
-97.275
0
LINE
8
0
10
174.45
20
-111.775
11
177.95
21
-111.775
0
LINE
8
0
10
177.95
20
-97.775
11
174.95
21
-97.775
0
LINE
8
0
10
177.95
20
-111.775
11
180.33125
21
-111.775
0
LINE
8
0
10
179.85625
20
-97.775
11
177.95
21
-97.775
0
LINE
8
0
10
180.33125
20
-111.775
11
180.35625
21
-111.775
0
ARC
8
0
10
186.38125
20
-111.275
40
0.5
50
268.567456
51
270
0
LINE
8
0
10
186.38125
20
-111.775
11
188.7625
21
-111.775
0
LINE
8
0
10
188.7625
20
-111.775
11
199.38125
21
-111.775
0
LINE
8
0
10
199.38125
20
-97.775
11
188.7625
21
-97.775
0
LINE
8
0
10
188.7625
20
-97.775
11
186.85625
21
-97.775
0
ARC
8
0
10
201.7625
20
-111.275
40
0.5
50
270
51
0
0
ARC
8
0
10
201.7625
20
-98.275
40
0.5
50
0
51
90
0
LINE
8
0
10
199.38125
20
-111.775
11
201.7625
21
-111.775
0
LINE
8
0
10
201.7625
20
-97.775
11
199.38125
21
-97.775
0
LINE
8
0
10
202.2625
20
-111.275
11
202.2625
21
-98.275
0
ENDSEC
0
EOF